<mxfile host="app.diagrams.net" agent="Mozilla/5.0 (Windows NT 10.0; Win64; x64) AppleWebKit/537.36 (KHTML, like Gecko) Chrome/133.0.0.0 Safari/537.36" version="26.0.5">
  <diagram id="R2lEEEUBdFMjLlhIrx00" name="Page-1">
    <mxGraphModel dx="990" dy="1584" grid="1" gridSize="10" guides="1" tooltips="1" connect="1" arrows="1" fold="1" page="1" pageScale="1" pageWidth="850" pageHeight="1100" math="0" shadow="0" extFonts="Permanent Marker^https://fonts.googleapis.com/css?family=Permanent+Marker">
      <root>
        <mxCell id="0" />
        <mxCell id="1" parent="0" />
        <mxCell id="bsDVykLvRhCMeooRDLJG-57" value="" style="rounded=0;whiteSpace=wrap;html=1;fillColor=#f8cecc;strokeColor=#b85450;" parent="1" vertex="1">
          <mxGeometry x="80" y="-700" width="730" height="380" as="geometry" />
        </mxCell>
        <mxCell id="bsDVykLvRhCMeooRDLJG-32" value="" style="ellipse;whiteSpace=wrap;html=1;fillColor=#dae8fc;strokeColor=#6c8ebf;movable=1;resizable=1;rotatable=1;deletable=1;editable=1;locked=0;connectable=1;" parent="1" vertex="1">
          <mxGeometry x="90" y="-470" width="700" height="140" as="geometry" />
        </mxCell>
        <mxCell id="bsDVykLvRhCMeooRDLJG-68" style="edgeStyle=none;curved=1;rounded=0;orthogonalLoop=1;jettySize=auto;html=1;exitX=1;exitY=0.5;exitDx=0;exitDy=0;entryX=0;entryY=0.5;entryDx=0;entryDy=0;fontSize=12;startSize=8;endSize=8;" parent="1" source="bsDVykLvRhCMeooRDLJG-1" target="bsDVykLvRhCMeooRDLJG-2" edge="1">
          <mxGeometry relative="1" as="geometry" />
        </mxCell>
        <mxCell id="bsDVykLvRhCMeooRDLJG-1" value="" style="rounded=0;whiteSpace=wrap;html=1;" parent="1" vertex="1">
          <mxGeometry x="160" y="-440" width="160" height="80" as="geometry" />
        </mxCell>
        <mxCell id="bsDVykLvRhCMeooRDLJG-53" style="edgeStyle=none;curved=1;rounded=0;orthogonalLoop=1;jettySize=auto;html=1;exitX=0.5;exitY=0;exitDx=0;exitDy=0;entryX=0.5;entryY=1;entryDx=0;entryDy=0;fontSize=12;startSize=8;endSize=8;" parent="1" source="bsDVykLvRhCMeooRDLJG-2" target="bsDVykLvRhCMeooRDLJG-5" edge="1">
          <mxGeometry relative="1" as="geometry" />
        </mxCell>
        <mxCell id="bsDVykLvRhCMeooRDLJG-66" style="edgeStyle=none;curved=1;rounded=0;orthogonalLoop=1;jettySize=auto;html=1;exitX=0.5;exitY=0;exitDx=0;exitDy=0;entryX=0.5;entryY=1;entryDx=0;entryDy=0;fontSize=12;startSize=8;endSize=8;" parent="1" source="bsDVykLvRhCMeooRDLJG-2" target="bsDVykLvRhCMeooRDLJG-38" edge="1">
          <mxGeometry relative="1" as="geometry" />
        </mxCell>
        <mxCell id="bsDVykLvRhCMeooRDLJG-2" value="" style="rounded=0;whiteSpace=wrap;html=1;" parent="1" vertex="1">
          <mxGeometry x="360" y="-440" width="160" height="80" as="geometry" />
        </mxCell>
        <mxCell id="bsDVykLvRhCMeooRDLJG-56" style="edgeStyle=none;curved=1;rounded=0;orthogonalLoop=1;jettySize=auto;html=1;exitX=0.5;exitY=0;exitDx=0;exitDy=0;entryX=0.75;entryY=1;entryDx=0;entryDy=0;fontSize=12;startSize=8;endSize=8;" parent="1" source="bsDVykLvRhCMeooRDLJG-3" target="bsDVykLvRhCMeooRDLJG-38" edge="1">
          <mxGeometry relative="1" as="geometry">
            <Array as="points">
              <mxPoint x="570" y="-600" />
            </Array>
          </mxGeometry>
        </mxCell>
        <mxCell id="bsDVykLvRhCMeooRDLJG-3" value="" style="rounded=0;whiteSpace=wrap;html=1;" parent="1" vertex="1">
          <mxGeometry x="560" y="-440" width="160" height="80" as="geometry" />
        </mxCell>
        <mxCell id="bsDVykLvRhCMeooRDLJG-67" style="edgeStyle=none;curved=1;rounded=0;orthogonalLoop=1;jettySize=auto;html=1;exitX=0.5;exitY=0;exitDx=0;exitDy=0;entryX=0.25;entryY=1;entryDx=0;entryDy=0;fontSize=12;startSize=8;endSize=8;" parent="1" source="bsDVykLvRhCMeooRDLJG-5" target="bsDVykLvRhCMeooRDLJG-38" edge="1">
          <mxGeometry relative="1" as="geometry" />
        </mxCell>
        <mxCell id="bsDVykLvRhCMeooRDLJG-5" value="" style="rounded=0;whiteSpace=wrap;html=1;" parent="1" vertex="1">
          <mxGeometry x="270" y="-560" width="160" height="80" as="geometry" />
        </mxCell>
        <mxCell id="bsDVykLvRhCMeooRDLJG-63" style="edgeStyle=none;curved=1;rounded=0;orthogonalLoop=1;jettySize=auto;html=1;exitX=0.5;exitY=1;exitDx=0;exitDy=0;entryX=0.25;entryY=0;entryDx=0;entryDy=0;fontSize=12;startSize=8;endSize=8;" parent="1" source="bsDVykLvRhCMeooRDLJG-6" target="bsDVykLvRhCMeooRDLJG-5" edge="1">
          <mxGeometry relative="1" as="geometry" />
        </mxCell>
        <mxCell id="bsDVykLvRhCMeooRDLJG-6" value="" style="rounded=0;whiteSpace=wrap;html=1;" parent="1" vertex="1">
          <mxGeometry x="160" y="-670" width="160" height="80" as="geometry" />
        </mxCell>
        <mxCell id="bsDVykLvRhCMeooRDLJG-62" style="edgeStyle=none;curved=1;rounded=0;orthogonalLoop=1;jettySize=auto;html=1;exitX=1;exitY=0.5;exitDx=0;exitDy=0;entryX=0;entryY=0.5;entryDx=0;entryDy=0;fontSize=12;startSize=8;endSize=8;" parent="1" source="bsDVykLvRhCMeooRDLJG-8" target="bsDVykLvRhCMeooRDLJG-5" edge="1">
          <mxGeometry relative="1" as="geometry" />
        </mxCell>
        <mxCell id="bsDVykLvRhCMeooRDLJG-8" value="" style="rounded=0;whiteSpace=wrap;html=1;" parent="1" vertex="1">
          <mxGeometry x="90" y="-560" width="160" height="80" as="geometry" />
        </mxCell>
        <mxCell id="bsDVykLvRhCMeooRDLJG-20" value="session service" style="text;strokeColor=none;fillColor=none;html=1;align=center;verticalAlign=middle;whiteSpace=wrap;rounded=0;fontSize=16;" parent="1" vertex="1">
          <mxGeometry x="310" y="-535" width="60" height="30" as="geometry" />
        </mxCell>
        <mxCell id="bsDVykLvRhCMeooRDLJG-22" value="prisma&lt;div&gt;service&lt;/div&gt;" style="text;strokeColor=none;fillColor=none;html=1;align=center;verticalAlign=middle;whiteSpace=wrap;rounded=0;fontSize=16;" parent="1" vertex="1">
          <mxGeometry x="210" y="-645" width="60" height="30" as="geometry" />
        </mxCell>
        <mxCell id="bsDVykLvRhCMeooRDLJG-23" value="jwt&lt;div&gt;auth&lt;/div&gt;&lt;div&gt;service&lt;/div&gt;" style="text;strokeColor=none;fillColor=none;html=1;align=center;verticalAlign=middle;whiteSpace=wrap;rounded=0;fontSize=16;" parent="1" vertex="1">
          <mxGeometry x="410" y="-415" width="60" height="30" as="geometry" />
        </mxCell>
        <mxCell id="bsDVykLvRhCMeooRDLJG-24" value="jwt&lt;div&gt;auth&lt;/div&gt;&lt;div&gt;settings&lt;/div&gt;" style="text;strokeColor=none;fillColor=none;html=1;align=center;verticalAlign=middle;whiteSpace=wrap;rounded=0;fontSize=16;" parent="1" vertex="1">
          <mxGeometry x="210" y="-415" width="60" height="30" as="geometry" />
        </mxCell>
        <mxCell id="bsDVykLvRhCMeooRDLJG-25" value="mutex&lt;div&gt;manager&lt;/div&gt;" style="text;strokeColor=none;fillColor=none;html=1;align=center;verticalAlign=middle;whiteSpace=wrap;rounded=0;fontSize=16;" parent="1" vertex="1">
          <mxGeometry x="140" y="-535" width="60" height="30" as="geometry" />
        </mxCell>
        <mxCell id="bsDVykLvRhCMeooRDLJG-26" value="cookie&lt;div&gt;settings&lt;/div&gt;" style="text;strokeColor=none;fillColor=none;html=1;align=center;verticalAlign=middle;whiteSpace=wrap;rounded=0;fontSize=16;" parent="1" vertex="1">
          <mxGeometry x="610" y="-415" width="60" height="30" as="geometry" />
        </mxCell>
        <mxCell id="bsDVykLvRhCMeooRDLJG-37" style="edgeStyle=none;curved=1;rounded=0;orthogonalLoop=1;jettySize=auto;html=1;exitX=0.5;exitY=1;exitDx=0;exitDy=0;fontSize=12;startSize=8;endSize=8;entryX=0.917;entryY=0.226;entryDx=0;entryDy=0;entryPerimeter=0;" parent="1" source="dbuw_rw_clf15lGVqVSC-2" target="bsDVykLvRhCMeooRDLJG-32" edge="1">
          <mxGeometry relative="1" as="geometry">
            <mxPoint x="735" y="-505" as="sourcePoint" />
          </mxGeometry>
        </mxCell>
        <mxCell id="bsDVykLvRhCMeooRDLJG-38" value="" style="rounded=0;whiteSpace=wrap;html=1;" parent="1" vertex="1">
          <mxGeometry x="360" y="-840" width="160" height="80" as="geometry" />
        </mxCell>
        <mxCell id="bsDVykLvRhCMeooRDLJG-39" value="Jwt&lt;div&gt;Guard&lt;/div&gt;" style="text;strokeColor=none;fillColor=none;html=1;align=center;verticalAlign=middle;whiteSpace=wrap;rounded=0;fontSize=16;" parent="1" vertex="1">
          <mxGeometry x="410" y="-815" width="60" height="30" as="geometry" />
        </mxCell>
        <mxCell id="bsDVykLvRhCMeooRDLJG-41" style="edgeStyle=none;curved=1;rounded=0;orthogonalLoop=1;jettySize=auto;html=1;exitX=0.5;exitY=0;exitDx=0;exitDy=0;fontSize=12;startSize=8;endSize=8;" parent="1" source="bsDVykLvRhCMeooRDLJG-2" target="bsDVykLvRhCMeooRDLJG-2" edge="1">
          <mxGeometry relative="1" as="geometry" />
        </mxCell>
        <mxCell id="bsDVykLvRhCMeooRDLJG-58" value="AuthPackModule" style="text;strokeColor=none;align=center;fillColor=none;html=1;verticalAlign=middle;whiteSpace=wrap;rounded=0;fontSize=16;" parent="1" vertex="1">
          <mxGeometry x="709" y="-840" width="60" height="30" as="geometry" />
        </mxCell>
        <mxCell id="bsDVykLvRhCMeooRDLJG-60" style="edgeStyle=none;curved=1;rounded=0;orthogonalLoop=1;jettySize=auto;html=1;exitX=0.5;exitY=1;exitDx=0;exitDy=0;entryX=0.75;entryY=0;entryDx=0;entryDy=0;fontSize=12;startSize=8;endSize=8;" parent="1" source="bsDVykLvRhCMeooRDLJG-58" target="bsDVykLvRhCMeooRDLJG-57" edge="1">
          <mxGeometry relative="1" as="geometry" />
        </mxCell>
        <mxCell id="bsDVykLvRhCMeooRDLJG-70" value="" style="shape=note;whiteSpace=wrap;html=1;backgroundOutline=1;fontColor=#000000;darkOpacity=0.05;fillColor=#FFF9B2;strokeColor=none;fillStyle=solid;direction=west;gradientDirection=north;gradientColor=#FFF2A1;shadow=1;size=20;pointerEvents=1;" parent="1" vertex="1">
          <mxGeometry x="590" y="-695" width="200" height="155" as="geometry" />
        </mxCell>
        <mxCell id="bsDVykLvRhCMeooRDLJG-71" value="session service еще используется в своем модуле, откуда и экспортируется!" style="text;strokeColor=none;fillColor=none;html=1;align=center;verticalAlign=middle;whiteSpace=wrap;rounded=0;fontSize=16;" parent="1" vertex="1">
          <mxGeometry x="605" y="-645" width="170" height="30" as="geometry" />
        </mxCell>
        <mxCell id="bsDVykLvRhCMeooRDLJG-73" style="edgeStyle=none;curved=1;rounded=0;orthogonalLoop=1;jettySize=auto;html=1;exitX=1;exitY=0.25;exitDx=0;exitDy=0;entryX=0;entryY=0.5;entryDx=0;entryDy=0;fontSize=12;startSize=8;endSize=8;" parent="1" source="bsDVykLvRhCMeooRDLJG-74" target="bsDVykLvRhCMeooRDLJG-38" edge="1">
          <mxGeometry relative="1" as="geometry">
            <mxPoint x="298" y="-815" as="sourcePoint" />
          </mxGeometry>
        </mxCell>
        <mxCell id="bsDVykLvRhCMeooRDLJG-74" value="Аутентифицирует и авторизует сессии и аккаунты" style="text;strokeColor=none;fillColor=none;html=1;align=center;verticalAlign=middle;whiteSpace=wrap;rounded=0;fontSize=16;" parent="1" vertex="1">
          <mxGeometry x="51" y="-828" width="210" height="30" as="geometry" />
        </mxCell>
        <mxCell id="dbuw_rw_clf15lGVqVSC-2" value="Ядро. Менять только переменные" style="text;strokeColor=none;fillColor=none;html=1;align=center;verticalAlign=middle;whiteSpace=wrap;rounded=0;fontSize=16;" vertex="1" parent="1">
          <mxGeometry x="630" y="-525" width="160" height="30" as="geometry" />
        </mxCell>
      </root>
    </mxGraphModel>
  </diagram>
</mxfile>
